<svg width="196" height="180" viewBox="0 0 196 180" fill="none" xmlns="http://www.w3.org/2000/svg">
<g filter="url(#filter0_d_2_15)">
<path d="M13.9349 25.1455C20.385 11.9307 33.8805 3.62343 48.5842 3.8169L100.5 4.5L130.5 1.5L151.348 0.466211C172.961 -0.605494 191.104 16.561 191.229 38.1999L191.5 85V125.799C191.5 127.598 191.372 129.393 191.118 131.173L190.121 138.156C187.464 156.754 171.615 170.619 152.829 170.781L43.3415 171.722C24.6995 171.882 8.69433 158.495 5.55684 140.119L4.54202 134.175C4.18132 132.062 4 129.923 4 127.779V54.2789C4 48.5024 5.31694 42.8019 7.85071 37.6107L13.9349 25.1455Z" fill="#D9D9D9"/>
<path d="M119.5 30.5C109.202 35.0742 104.455 38.6504 98.5 47.5C94.2867 39.8308 88 35.5 75.5 31.5C63 27.5 61.5 28 54 30.5C50.1183 31.7939 47.3081 33.7575 45.5 35.3509C43.8146 36.8363 43 38 43 38C43 38 36 46.5 36 54.5V80.5C37.118 91.6742 42.1802 98.3003 50.5 103H74L79 100C82.1647 97.9022 84.2049 98.3194 88 100C91.087 101.191 89.8554 102.039 88.5 103.5L83 106.5H102C103.757 103.962 105 103.1 107 101.1C109 99.0997 113.809 98.7357 116 100C118.324 101.811 117.218 103.581 116 106.5C107.689 115.54 97 117 57.5 114.5C62.6443 118.138 81.5764 128.066 84.5 129C87.4236 129.934 93.3128 132.107 97 133.5C101.106 134.894 105 136 110 133.5C116 129 118.559 128.94 122 125C137.29 114.207 138.026 112.121 147.5 101.1C148.56 99.8666 149.717 98.5093 151 97C156.172 90.9178 158.297 87.9448 159 81.5C154.469 76.5902 149.172 73.7547 141 71.5L119.5 67C117.75 67.7249 116.968 68.3621 116 70C112 75.5 109.695 78.1812 106.5 78C103.305 77.8188 104.5 72 104.5 72L108 66C108 66 98.6665 65.9849 93.5 68.5C89.9887 70.2093 85.5 74.5 85.5 74.5C85.5 74.5 79.8297 76.7871 78 74.5C76.5362 72.6703 78 68.5 78 68.5L87.5 58.5C87.5 58.5 95.5 55.5 100 54.5C109.992 51.7122 123.409 54.9492 160 68.5C161.386 60.5053 162.28 56.0404 160 47.5C154.936 37.1611 150.915 33.2208 141 30.5H119.5Z" fill="#FDFDFD" fill-opacity="0.3"/>
<path d="M119.5 30.5C109.202 35.0742 104.455 38.6504 98.5 47.5C94.2867 39.8308 88 35.5 75.5 31.5C63 27.5 61.5 28 54 30.5C50.1183 31.7939 47.3081 33.7575 45.5 35.3509C43.8146 36.8363 43 38 43 38C43 38 36 46.5 36 54.5V80.5C37.118 91.6742 42.1802 98.3003 50.5 103H74L79 100C82.1647 97.9022 84.2049 98.3194 88 100C91.087 101.191 89.8554 102.039 88.5 103.5L83 106.5H102C103.757 103.962 105 103.1 107 101.1C109 99.0997 113.809 98.7357 116 100C118.324 101.811 117.218 103.581 116 106.5C107.689 115.54 97 117 57.5 114.5C62.6443 118.138 81.5764 128.066 84.5 129C87.4236 129.934 93.3128 132.107 97 133.5C101.106 134.894 105 136 110 133.5C116 129 118.559 128.94 122 125C137.29 114.207 138.026 112.121 147.5 101.1C148.56 99.8666 149.717 98.5093 151 97C156.172 90.9178 158.297 87.9448 159 81.5C154.469 76.5902 149.172 73.7547 141 71.5L119.5 67C117.75 67.7249 116.968 68.3621 116 70C112 75.5 109.695 78.1812 106.5 78C103.305 77.8188 104.5 72 104.5 72L108 66C108 66 98.6665 65.9849 93.5 68.5C89.9887 70.2093 85.5 74.5 85.5 74.5C85.5 74.5 79.8297 76.7871 78 74.5C76.5362 72.6703 78 68.5 78 68.5L87.5 58.5C87.5 58.5 95.5 55.5 100 54.5C109.992 51.7122 123.409 54.9492 160 68.5C161.386 60.5053 162.28 56.0404 160 47.5C154.936 37.1611 150.915 33.2208 141 30.5H119.5Z" fill="#0E91A4"/>
<path d="M89 89.5V86H96V79H99.5V86H106.5V89.5H99.5V96.5H96V89.5H89Z" fill="#D9D9D9"/>
</g>
<defs>
<filter id="filter0_d_2_15" x="0" y="0.418625" width="195.5" height="179.305" filterUnits="userSpaceOnUse" color-interpolation-filters="sRGB">
<feFlood flood-opacity="0" result="BackgroundImageFix"/>
<feColorMatrix in="SourceAlpha" type="matrix" values="0 0 0 0 0 0 0 0 0 0 0 0 0 0 0 0 0 0 127 0" result="hardAlpha"/>
<feOffset dy="4"/>
<feGaussianBlur stdDeviation="2"/>
<feComposite in2="hardAlpha" operator="out"/>
<feColorMatrix type="matrix" values="0 0 0 0 0 0 0 0 0 0 0 0 0 0 0 0 0 0 0.25 0"/>
<feBlend mode="normal" in2="BackgroundImageFix" result="effect1_dropShadow_2_15"/>
<feBlend mode="normal" in="SourceGraphic" in2="effect1_dropShadow_2_15" result="shape"/>
</filter>
</defs>
</svg>
